<svg width="355" height="45" viewBox="0 0 355 45" fill="none" xmlns="http://www.w3.org/2000/svg">
<path d="M0 18.0376C0 15.8293 0.370931 13.9315 1.11279 12.3442C1.87191 10.7397 2.93294 9.52344 4.2959 8.69531C5.65885 7.84993 7.25472 7.42725 9.0835 7.42725C10.7915 7.42725 12.3184 7.78955 13.6641 8.51416C15.0098 9.23877 16.0794 10.3171 16.873 11.749C17.6667 13.181 18.1066 14.9062 18.1929 16.9248H19.0728C19.159 14.9062 19.599 13.181 20.3926 11.749C21.1862 10.3171 22.2472 9.23877 23.5757 8.51416C24.9214 7.78955 26.4482 7.42725 28.1562 7.42725C29.985 7.42725 31.5809 7.84993 32.9438 8.69531C34.3068 9.52344 35.3592 10.7397 36.1011 12.3442C36.8429 13.9315 37.2139 15.8293 37.2139 18.0376C37.2139 19.6248 36.9119 21.0482 36.3081 22.3076C35.7043 23.5498 34.9279 24.6626 33.979 25.646C33.0301 26.6294 31.6672 27.8975 29.8901 29.4502C28.3719 30.7441 27.0521 31.9259 25.9307 32.9956C24.8092 34.0653 23.6361 35.3247 22.4111 36.7739C21.2035 38.2231 20.0648 39.8449 18.9951 41.6392H18.2446C17.175 39.8621 16.0277 38.249 14.8027 36.7998C13.5951 35.3333 12.4391 34.0825 11.335 33.0474C10.248 31.995 8.9196 30.7959 7.34961 29.4502C5.57259 27.9147 4.20101 26.6553 3.23486 25.6719C2.28597 24.6885 1.5096 23.5671 0.905762 22.3076C0.301921 21.0482 0 19.6248 0 18.0376Z" fill="#1B1AFF"/>
<path d="M66.671 15.5273C67.4818 15.5273 68.1633 15.812 68.7154 16.3813C69.2847 16.9334 69.5694 17.6149 69.5694 18.4258V28.4668C69.5694 30.3473 69.1899 31.9691 68.4307 33.332C67.6716 34.695 66.602 35.7474 65.2218 36.4893H69.5694V41.6392H50.3155V36.4893H54.8184C52.7999 35.5576 51.273 34.186 50.2379 32.3745C49.0819 30.356 47.5723 28.3978 45.7091 26.5L42.9141 23.7051C42.4483 23.2393 42.2154 22.6958 42.2154 22.0747C42.2154 21.5399 42.4052 21.0827 42.7847 20.7031C43.6991 19.7887 44.6825 19.3315 45.7349 19.3315C46.7528 19.3315 47.7017 19.7715 48.5816 20.6514L49.8238 21.8936V15.8638C49.8238 15.0529 50.1085 14.3628 50.6778 13.7935C51.2472 13.2241 51.9373 12.9395 52.7481 12.9395C53.3865 12.9395 53.9644 13.1292 54.482 13.5088V2.92432C54.482 2.11344 54.7581 1.42334 55.3101 0.854004C55.8795 0.284668 56.5696 0 57.3805 0C58.1913 0 58.8814 0.284668 59.4508 0.854004C60.0201 1.42334 60.3048 2.11344 60.3048 2.92432V13.6123C60.8223 13.2327 61.3917 13.043 62.0128 13.043C62.8236 13.043 63.5137 13.3276 64.0831 13.897C64.6524 14.4663 64.9371 15.1564 64.9371 15.9673V16.0967C65.4547 15.7171 66.0326 15.5273 66.671 15.5273ZM68.379 18.4258C68.379 17.9427 68.2065 17.5373 67.8614 17.2095C67.5336 16.8817 67.1368 16.7178 66.671 16.7178C66.2052 16.7178 65.7997 16.8903 65.4547 17.2354C65.1096 17.5632 64.9371 17.96 64.9371 18.4258V23.7827H63.7467V15.9673C63.7467 15.4842 63.5741 15.0788 63.2291 14.751C62.9013 14.4059 62.4958 14.2334 62.0128 14.2334C61.547 14.2334 61.1415 14.4059 60.7965 14.751C60.4687 15.0788 60.3048 15.4842 60.3048 15.9673V22.644H59.1143V2.92432C59.1143 2.44124 58.9418 2.03581 58.5968 1.70801C58.269 1.36296 57.8635 1.19043 57.3805 1.19043C56.9146 1.19043 56.5092 1.36296 56.1641 1.70801C55.8363 2.03581 55.6724 2.44124 55.6724 2.92432V22.644H54.482V15.8638C54.482 15.3807 54.3095 14.9753 53.9644 14.6475C53.6366 14.3024 53.2312 14.1299 52.7481 14.1299C52.2823 14.1299 51.8769 14.3024 51.5318 14.6475C51.204 14.9753 51.0401 15.3807 51.0401 15.8638V25.9565H49.8238V23.5757L47.7276 21.5054C47.1065 20.8843 46.4337 20.5737 45.7091 20.5737C44.9672 20.5737 44.2771 20.8929 43.6388 21.5312C43.4662 21.7038 43.38 21.9022 43.38 22.1265C43.38 22.3853 43.5007 22.6354 43.7423 22.877L46.5631 25.6719C48.4954 27.6387 50.074 29.6745 51.2989 31.7793C51.9545 32.918 52.7999 33.841 53.835 34.5483C54.8874 35.2557 55.9485 35.756 57.0181 36.0493C58.1051 36.3426 59.0798 36.4893 59.9425 36.4893C62.5476 36.4893 64.6007 35.7992 66.1016 34.4189C67.6199 33.0215 68.379 31.0374 68.379 28.4668V18.4258Z" fill="#1B1AFF"/>
<path d="M81.4806 41.6392L87.0705 25.4131H75.1921L91.8322 4.52881L84.5343 20.7808H96.3869L81.4806 41.6392Z" fill="#1B1AFF"/>
<path d="M119.685 4.21826C123.118 4.21826 126.275 5.06364 129.156 6.75439C132.055 8.44515 134.35 10.7397 136.04 13.6382C137.748 16.5194 138.602 19.6852 138.602 23.1357C138.602 26.569 137.748 29.7262 136.04 32.6074C134.35 35.4886 132.055 37.766 129.156 39.4395C126.258 41.113 123.101 41.9497 119.685 41.9497C116.286 41.9497 113.146 41.113 110.265 39.4395C107.384 37.7487 105.098 35.4627 103.407 32.5815C101.716 29.7004 100.871 26.5518 100.871 23.1357C100.871 19.6852 101.716 16.5107 103.407 13.6123C105.115 10.7139 107.41 8.4279 110.291 6.75439C113.189 5.06364 116.321 4.21826 119.685 4.21826ZM119.685 38.8442C122.583 38.8442 125.24 38.1541 127.656 36.7739C130.071 35.3765 131.977 33.4787 133.375 31.0806C134.789 28.6652 135.497 26.0169 135.497 23.1357C135.497 20.2373 134.789 17.5804 133.375 15.165C131.977 12.7497 130.071 10.8433 127.656 9.4458C125.24 8.03109 122.583 7.32373 119.685 7.32373C116.855 7.32373 114.233 8.03109 111.818 9.4458C109.42 10.8433 107.513 12.7497 106.098 15.165C104.684 17.5804 103.976 20.2373 103.976 23.1357C103.976 26.0169 104.692 28.6652 106.124 31.0806C107.556 33.4787 109.471 35.3765 111.869 36.7739C114.285 38.1541 116.89 38.8442 119.685 38.8442ZM115.311 26.3965C115.311 27.0693 115.078 27.6473 114.613 28.1304C114.147 28.5962 113.569 28.8291 112.879 28.8291C112.223 28.8291 111.654 28.5962 111.171 28.1304C110.705 27.6473 110.472 27.0693 110.472 26.3965C110.472 25.7409 110.705 25.1802 111.171 24.7144L106.59 23.0581L107.522 20.4961L117.666 24.1709L116.76 26.7329L115.311 26.2153V26.3965ZM132.883 23.0581L128.302 24.7144C128.786 25.1974 129.027 25.7581 129.027 26.3965C129.027 27.0693 128.786 27.6473 128.302 28.1304C127.819 28.5962 127.25 28.8291 126.594 28.8291C125.922 28.8291 125.344 28.5962 124.861 28.1304C124.395 27.6473 124.162 27.0693 124.162 26.3965V26.2153L122.739 26.7329L121.807 24.145L131.977 20.4961L132.883 23.0581ZM114.328 31.8311H125.119V34.5225H114.328V31.8311Z" fill="#1B1AFF"/>
<path d="M149.401 41.6392L154.991 25.4131H143.112L159.752 4.52881L152.454 20.7808H164.307L149.401 41.6392Z" fill="#1B1AFF"/>
<path d="M207.402 21.1689C207.523 21.1517 207.704 21.1431 207.946 21.1431C208.688 21.1431 209.257 21.3587 209.654 21.79C210.051 22.2214 210.249 22.8338 210.249 23.6274C210.249 24.4211 210.042 25.0335 209.628 25.4648C209.231 25.8789 208.653 26.0859 207.894 26.0859C207.687 26.0859 207.523 26.0773 207.402 26.0601L191.073 24.2744L203.883 34.5483C204.694 35.1522 205.099 35.7992 205.099 36.4893C205.099 37.0758 204.806 37.6624 204.219 38.249C203.633 38.8356 203.029 39.1289 202.408 39.1289C201.666 39.1289 201.01 38.7493 200.441 37.9902L190.167 25.1543L191.978 41.5098C191.996 41.6305 192.004 41.7944 192.004 42.0015C192.004 42.7606 191.789 43.3385 191.357 43.7354C190.926 44.1322 190.314 44.3306 189.52 44.3306C188.726 44.3306 188.114 44.1322 187.683 43.7354C187.268 43.3558 187.061 42.7951 187.061 42.0532C187.061 41.8117 187.07 41.6305 187.087 41.5098L188.899 25.1543L178.599 37.9902C178.03 38.7493 177.391 39.1289 176.684 39.1289C176.063 39.1289 175.459 38.8356 174.872 38.249C174.303 37.6797 174.018 37.0845 174.018 36.4634C174.018 35.7388 174.398 35.1004 175.157 34.5483L187.993 24.2485L171.663 26.0601C171.543 26.0773 171.379 26.0859 171.172 26.0859C170.413 26.0859 169.826 25.8789 169.412 25.4648C168.998 25.0335 168.791 24.4211 168.791 23.6274C168.791 22.8338 168.998 22.2214 169.412 21.79C169.826 21.3587 170.395 21.1431 171.12 21.1431C171.362 21.1431 171.543 21.1517 171.663 21.1689L187.967 22.9287L175.157 12.6807C174.398 12.1113 174.018 11.4644 174.018 10.7397C174.018 10.1187 174.312 9.51481 174.898 8.92822C175.468 8.35889 176.054 8.07422 176.658 8.07422C177.383 8.07422 178.03 8.4624 178.599 9.23877L188.873 22.0747L187.087 5.71924C187.07 5.59847 187.061 5.41732 187.061 5.17578C187.061 4.43392 187.268 3.87321 187.683 3.49365C188.114 3.09684 188.726 2.89844 189.52 2.89844C190.314 2.89844 190.926 3.09684 191.357 3.49365C191.789 3.89046 192.004 4.46842 192.004 5.22754C192.004 5.43457 191.996 5.59847 191.978 5.71924L190.193 22.0747L200.441 9.23877C201.045 8.44515 201.7 8.04834 202.408 8.04834C203.029 8.04834 203.624 8.34163 204.193 8.92822C204.78 9.51481 205.073 10.1187 205.073 10.7397C205.073 11.4299 204.685 12.0768 203.909 12.6807L191.099 22.9287L207.402 21.1689Z" fill="#1B1AFF"/>
<path d="M219.21 19.021C219.02 17.2785 218.779 15.9587 218.485 15.0615C218.192 14.1471 217.743 13.4657 217.14 13.0171C216.553 12.5513 215.682 12.1976 214.526 11.9561C215.682 11.7145 216.553 11.3608 217.14 10.895C217.743 10.4119 218.192 9.73047 218.485 8.85059C218.779 7.95345 219.02 6.65951 219.21 4.96875C219.4 6.65951 219.641 7.95345 219.935 8.85059C220.228 9.73047 220.668 10.4119 221.254 10.895C221.858 11.3608 222.729 11.7145 223.868 11.9561C222.729 12.1976 221.858 12.5513 221.254 13.0171C220.668 13.4657 220.228 14.1471 219.935 15.0615C219.641 15.9587 219.4 17.2785 219.21 19.021ZM230.441 38.5596C230.027 34.5915 229.484 31.624 228.811 29.6572C228.138 27.6904 227.103 26.2326 225.706 25.2837C224.308 24.3348 222.195 23.6016 219.365 23.084C222.195 22.5492 224.308 21.7987 225.706 20.8325C227.103 19.8664 228.138 18.4085 228.811 16.459C229.484 14.4922 230.027 11.542 230.441 7.6084C230.855 11.542 231.408 14.4922 232.098 16.459C232.788 18.4085 233.84 19.8664 235.255 20.8325C236.67 21.7987 238.792 22.5492 241.621 23.084C238.792 23.6016 236.67 24.3434 235.255 25.3096C233.84 26.2585 232.788 27.7163 232.098 29.6831C231.408 31.6499 230.855 34.6087 230.441 38.5596ZM221.539 40.7852C221.349 39.0426 221.108 37.7228 220.814 36.8257C220.521 35.9285 220.073 35.2557 219.469 34.8071C218.882 34.3413 218.02 33.9876 216.881 33.7461C218.02 33.5046 218.882 33.1509 219.469 32.6851C220.073 32.202 220.521 31.5205 220.814 30.6406C221.108 29.7435 221.349 28.4495 221.539 26.7588C221.729 28.4495 221.97 29.7435 222.264 30.6406C222.557 31.5205 222.997 32.202 223.583 32.6851C224.187 33.1509 225.059 33.5046 226.197 33.7461C225.059 33.9876 224.187 34.3413 223.583 34.8071C222.997 35.2557 222.557 35.9285 222.264 36.8257C221.97 37.7228 221.729 39.0426 221.539 40.7852Z" fill="#1B1AFF"/>
<path d="M265.825 4.55469C269.31 4.67546 272.338 5.54671 274.908 7.16846C277.496 8.77295 279.472 10.9123 280.835 13.5864C282.215 16.2606 282.905 19.2021 282.905 22.4111H282.128C281.697 21.6175 281.085 21.005 280.291 20.5737C279.515 20.1424 278.678 19.9268 277.781 19.9268C276.901 19.9268 276.073 20.1424 275.296 20.5737C274.537 21.005 273.951 21.6175 273.537 22.4111C273.105 21.5658 272.493 20.9188 271.699 20.4702C270.923 20.0044 270.078 19.7715 269.163 19.7715C268.439 19.7715 267.748 19.9181 267.093 20.2114C266.437 20.4875 265.885 20.9015 265.437 21.4536V31.7275H265.954V37.0845C265.954 38.6545 265.497 39.8794 264.583 40.7593C263.685 41.6219 262.391 42.0532 260.701 42.0532C259.148 42.0532 257.906 41.6219 256.974 40.7593C256.043 39.8966 255.577 38.6027 255.577 36.8774V36.1787H257.621V36.8774C257.621 37.9816 257.906 38.8011 258.475 39.3359C259.062 39.8535 259.769 40.1123 260.597 40.1123C261.632 40.1123 262.417 39.8276 262.952 39.2583C263.487 38.689 263.754 37.8695 263.754 36.7998V31.7793H264.246V21.4536C263.798 20.9015 263.246 20.4875 262.59 20.2114C261.934 19.9181 261.244 19.7715 260.52 19.7715C259.605 19.7715 258.751 20.0044 257.958 20.4702C257.181 20.9188 256.577 21.5658 256.146 22.4111C255.715 21.6175 255.12 21.005 254.36 20.5737C253.601 20.1424 252.782 19.9268 251.902 19.9268C251.005 19.9268 250.159 20.1424 249.366 20.5737C248.589 21.005 247.986 21.6175 247.554 22.4111H246.752C246.752 19.1849 247.433 16.2433 248.796 13.5864C250.177 10.9123 252.161 8.77295 254.749 7.16846C257.336 5.54671 260.382 4.67546 263.884 4.55469L264.246 1.52686H265.437L265.825 4.55469Z" fill="#1B1AFF"/>
<path d="M306.203 4.42529V14.6992H304.676V4.42529H306.203ZM301.855 15.4756L298.336 5.79688L299.759 5.30518L303.227 14.958L301.855 15.4756ZM312.569 5.82275L309.024 15.4756L307.626 14.958L311.12 5.30518L312.569 5.82275ZM318.081 9.31641L311.456 17.1577L310.318 16.1743L316.917 8.33301L318.081 9.31641ZM299.397 17.1577L292.798 9.29053L293.988 8.35889L300.561 16.1743L299.397 17.1577ZM322.041 14.4922L313.164 19.5903L312.388 18.2705L321.316 13.1206L322.041 14.4922ZM297.689 19.5903L288.786 14.4404L289.589 13.1465L298.491 18.2705L297.689 19.5903ZM305.426 29.8125C304.219 29.8125 303.106 29.5192 302.088 28.9326C301.07 28.3288 300.268 27.5265 299.681 26.5259C299.095 25.508 298.801 24.3952 298.801 23.1875C298.801 21.9798 299.095 20.867 299.681 19.8491C300.268 18.8312 301.07 18.029 302.088 17.4424C303.106 16.8385 304.219 16.5366 305.426 16.5366C306.634 16.5366 307.738 16.8385 308.739 17.4424C309.757 18.029 310.559 18.8312 311.146 19.8491C311.75 20.867 312.051 21.9798 312.051 23.1875C312.051 24.3952 311.75 25.508 311.146 26.5259C310.559 27.5265 309.757 28.3288 308.739 28.9326C307.738 29.5192 306.634 29.8125 305.426 29.8125ZM296.938 22.4629L286.819 20.6772L287.104 19.1763L297.223 20.9619L296.938 22.4629ZM324.007 20.6772L313.915 22.4888L313.656 20.9878L323.775 19.2021L324.007 20.6772ZM297.197 25.3872L287.078 27.1729L286.819 25.6719L296.964 23.9121L297.197 25.3872ZM323.775 27.1987L313.656 25.4131L313.941 23.9121L324.033 25.6978L323.775 27.1987ZM298.439 28.0786L289.563 33.2544L288.812 31.8828L297.689 26.7847L298.439 28.0786ZM321.264 33.2285L312.388 28.0786L313.164 26.7847L322.041 31.9346L321.264 33.2285ZM300.561 30.1748L293.962 38.042L292.798 37.0586L299.397 29.1914L300.561 30.1748ZM316.865 38.0161L310.318 30.1748L311.456 29.2173L318.081 37.0845L316.865 38.0161ZM303.227 31.417L299.733 41.0698L298.31 40.5522L301.829 30.8994L303.227 31.417ZM311.12 41.0698L307.626 31.417L309.024 30.9253L312.543 40.5781L311.12 41.0698ZM306.203 31.6758V41.9497H304.676V31.6758H306.203Z" fill="#1B1AFF"/>
<path d="M335.582 4.50293C338.981 4.50293 342.104 5.33968 344.95 7.01318C347.814 8.68669 350.083 10.9554 351.757 13.8193C353.43 16.666 354.267 19.7887 354.267 23.1875C354.267 26.5863 353.43 29.7176 351.757 32.5815C350.083 35.4282 347.814 37.6883 344.95 39.3618C342.104 41.0353 338.981 41.8721 335.582 41.8721C333.184 41.8721 330.821 41.4062 328.491 40.4746C331.062 40.0433 333.4 39.0081 335.505 37.3691C337.609 35.7129 339.266 33.6426 340.473 31.1582C341.698 28.6738 342.311 26.0169 342.311 23.1875C342.311 20.3581 341.698 17.7012 340.473 15.2168C339.266 12.7324 337.609 10.6707 335.505 9.03174C333.4 7.37549 331.062 6.33171 328.491 5.90039C330.752 4.96875 333.115 4.50293 335.582 4.50293Z" fill="#1B1AFF"/>
</svg>
