<svg width="61" height="56" viewBox="0 0 61 56" fill="none" xmlns="http://www.w3.org/2000/svg">
<path d="M45.127 1C48.0825 1.00006 50.7107 1.67949 52.9756 3.07129L53.3965 3.33594C55.4667 4.69652 57.0667 6.61394 58.2021 9.05078H58.2012C59.4133 11.6257 60 14.6615 60 18.127C60 20.6697 59.5115 22.9856 58.5127 25.0527L58.5107 25.0576C57.5399 27.0395 56.2892 28.8178 54.7617 30.3887C53.2794 31.9131 51.1676 33.8623 48.4375 36.2295L48.4277 36.2373C46.1128 38.1951 44.1061 39.979 42.4053 41.5889C40.7186 43.1854 38.9458 45.0727 37.0879 47.2539C35.2771 49.4109 33.5648 51.8303 31.9521 54.5146L31.6602 55H29.3818L29.0898 54.5186C27.4767 51.8593 25.7506 49.4514 23.9121 47.293L23.9033 47.2832C22.0744 45.0795 20.3337 43.2107 18.6807 41.6729L18.6748 41.668L18.6689 41.6621C17.0229 40.0805 15.0039 38.272 12.6094 36.2354L12.6064 36.2324C9.87626 33.8914 7.75177 31.9573 6.24414 30.4346L6.23828 30.4277C4.70869 28.8547 3.45792 27.0615 2.4873 25.0527C1.48854 22.9856 1 20.6697 1 18.127C1.00001 14.6603 1.5868 11.6234 2.7998 9.04785L2.80176 9.04297C4.03924 6.44751 5.79039 4.44188 8.06348 3.07129C10.3285 1.67926 12.9572 1 15.9131 1C18.6737 1 21.1776 1.58279 23.4004 2.77051C25.6418 3.96824 27.4154 5.74908 28.7178 8.08105C29.5922 9.64669 30.1938 11.4103 30.5391 13.3604C30.8843 11.4102 31.4879 9.64676 32.3623 8.08105C33.6629 5.75243 35.4203 3.9711 37.6348 2.77246L37.6396 2.77051C39.8625 1.58281 42.3664 1 45.127 1Z" fill="#090918" stroke="#1B1AFF" stroke-width="2"/>
</svg>
