<svg width="36" height="54" viewBox="0 0 36 54" fill="none" xmlns="http://www.w3.org/2000/svg">
<path d="M19.8496 0.5C20.9898 0.500008 21.9754 0.908097 22.7773 1.71387C23.5792 2.51954 23.9844 3.50895 23.9844 4.65234V17.1328C24.4931 16.9058 25.0347 16.7881 25.6074 16.7881C26.7476 16.7881 27.7332 17.1962 28.5352 18.002C29.1736 18.6434 29.5592 19.4015 29.6904 20.2607C30.2211 20.0165 30.7909 19.8906 31.3975 19.8906C32.5327 19.8907 33.5064 20.2962 34.2871 21.0996L34.4336 21.249C35.1432 22.0089 35.5 22.9384 35.5 24.0107V36.5498C35.5 38.9655 35.0147 41.078 34.0225 42.8682C33.3169 44.141 32.4022 45.2079 31.2842 46.0684H35.5V53.5H10.5684V46.0684H14.7148C13.1007 45.0327 11.7917 43.7147 10.7959 42.1123L10.5371 41.6777C9.12428 39.1989 7.27552 36.787 4.98535 34.4434V34.4424L1.51367 30.9561C0.847626 30.2867 0.5 29.4834 0.5 28.5674C0.500012 27.7671 0.788627 27.0695 1.35352 26.502C2.5608 25.289 3.90441 24.6416 5.375 24.6416C6.80191 24.6417 8.10268 25.2671 9.26758 26.4375L9.95703 27.1299V20.8115C9.95703 19.6681 10.3622 18.6787 11.1641 17.873C11.9661 17.0673 12.9516 16.6592 14.0918 16.6592C14.6785 16.6592 15.2313 16.7753 15.7471 17.0039V4.65234C15.7471 3.51397 16.1377 2.52639 16.916 1.71973L16.9219 1.71387C17.7239 0.908089 18.7094 0.5 19.8496 0.5ZM19.8496 2.98633C19.411 2.98633 19.0326 3.14368 18.6924 3.48535C18.3827 3.79647 18.2266 4.17472 18.2266 4.65234V29.7783H15.7471V20.8115C15.7471 20.3422 15.5869 19.9665 15.2588 19.6533L15.249 19.6445L15.2402 19.6357C14.9286 19.3061 14.5567 19.1455 14.0918 19.1455C13.6532 19.1455 13.2748 19.3028 12.9346 19.6445C12.6249 19.9557 12.4688 20.3339 12.4688 20.8115V33.915H9.95703V30.6504L7.49902 28.2109L7.49707 28.209C6.7975 27.5062 6.08259 27.1934 5.34277 27.1934C4.58202 27.1934 3.84548 27.5165 3.12402 28.2412C2.99415 28.3717 2.94732 28.496 2.94727 28.6318C2.94727 28.7845 3.01399 28.977 3.25 29.2148H3.25098L6.75684 32.7051L6.76172 32.71C9.037 35.0368 10.9266 37.4456 12.4277 39.9365L12.7227 40.4365L12.7246 40.4385C13.5034 41.7973 14.5026 42.8921 15.7227 43.7305L16.1982 44.04C17.3092 44.734 18.4207 45.2309 19.5322 45.5371H19.5312C20.8513 45.8949 22.0175 46.0684 23.0342 46.0684C26.1823 46.0683 28.6007 45.2329 30.3506 43.6162C32.1108 41.9882 33.0205 39.6577 33.0205 36.5498V24.0107C33.0205 23.5416 32.8601 23.1666 32.5322 22.8535L32.5225 22.8447C32.2091 22.5299 31.8438 22.378 31.3975 22.3779C30.9587 22.3779 30.5805 22.5351 30.2402 22.877L30.2305 22.8857C29.8984 23.2028 29.7422 23.5687 29.7422 24.0107V31.2002H27.2627V20.9404C27.2627 20.4712 27.1023 20.0963 26.7744 19.7832L26.7646 19.7744L26.7559 19.7646C26.4442 19.4351 26.0723 19.2754 25.6074 19.2754C25.1687 19.2754 24.7905 19.4325 24.4502 19.7744C24.1406 20.0855 23.9844 20.4628 23.9844 20.9404V29.7783H21.5049V4.65234C21.5049 4.18322 21.3444 3.8082 21.0166 3.49512L20.998 3.47656C20.6864 3.14695 20.3145 2.98634 19.8496 2.98633Z" fill="#090918" stroke="#1B1AFF"/>
</svg>
