<svg width="1010" height="589" viewBox="0 0 1010 589" fill="none" xmlns="http://www.w3.org/2000/svg">
<path d="M403.5 434L373 445.5V191L392 199V180.5L433.5 197V225L457 235L439.5 279L415 269L422.5 253L403.5 245V299H431.5V336.5H403.5V434Z" fill="white"/>
<path d="M298 160V141L338.5 158V177L358 185V257.5L328 245.5V220L309.5 212V287L351 286.5V322L310.5 323V404.5L327 398.5V371.5L357.5 359.5V429L338 437V459.5L300 475V452L279 460.5V152L298 160Z" fill="white"/>
<path d="M28 0L0 13V588.5L27.5 577.5V361.5L47.5 350.5V570L75 559L76 24L48 36V222L28 234V0Z" fill="white"/>
<path d="M168.5 68V464L140.5 478.5V533.5L112.5 544.5V493.5L91.5 505V422.5L119.5 409.5V451.5L140.5 440V298.5L120 309.5V277.5L92 294V64.5L121 45.5V240L140.5 229V86.5L168.5 68Z" fill="white"/>
<path d="M214.5 133L247 108V138L263 125.763V330L214 359V504.5L185 516L185.5 114L214.5 91.834V133ZM214.5 193.5V295L235.5 281.5V179L214.5 193.5Z" fill="white"/>
<path d="M897 95.6514L913 85.7568V309.125L864 332.975V531.987L835 519.555L835.5 85.7568L864.5 72V88.5L897 72V95.6514ZM864.5 139.155V265.544L885.5 253.192V125.1L864.5 139.155Z" fill="white"/>
<path d="M617 198.5L635.5 190V294L617 300.5V314L635.5 308.5V444.5L604.5 432.5V336L584.5 342.5V421L554 410V224L575 215.5V198.5L617 180V198.5ZM584 245V287L605 278.5V237L584 245Z" fill="white"/>
<path d="M705 183.495L729.5 172.936V219.242L705 228.042V471L673 458.264V239.536L648 248.517V208.064L673 197.288V155.064L705 141V183.495Z" fill="white"/>
<path d="M792.582 318.282V504.5L761.885 492.367V334.108L740.75 344.659V125.734L768.931 113.601V293.598L786.544 282.938V105.688L818.75 92.5V304.567L792.582 318.282Z" fill="white"/>
<path d="M511 232L543.5 317L510.5 400.5H478.5L446 315L479 232H511ZM479 316L495.5 359L512 317.5L495.5 274L479 316Z" fill="white"/>
<path d="M1010 5.5L929.5 52L928.5 554L1010 587V433L978 448.5V527L958.5 521.5V346.5L1000.5 327V279.5L958.5 297V82.5L978 68V199H1010V5.5Z" fill="white"/>
</svg>
